<?xml version="1.0" encoding="utf-8"?>
<!-- Generator: Adobe Illustrator 23.0.1, SVG Export Plug-In . SVG Version: 6.00 Build 0)  -->
<svg version="1.1" id="Ebene_1" xmlns="http://www.w3.org/2000/svg" xmlns:xlink="http://www.w3.org/1999/xlink" x="0px" y="0px"
	 viewBox="0 0 200 200" style="enable-background:new 0 0 200 200;" xml:space="preserve">
<style type="text/css">
	.st0{fill:#FFFFFF;}
	.st1{stroke:#000000;stroke-miterlimit:10;}
</style>
<path class="st0" d="M6.9,170.7V122c0-7.1,5.7-12.8,12.8-12.8h134.9c0.2,0,0.4,0.2,0.4,0.4l0,0v60.8c0,0.2-0.2,0.4-0.4,0.4
	c0,0,0,0,0,0L6.9,170.7z"/>
<path d="M154.5,109.7v60.5H7.4V122c0-6.8,5.5-12.3,12.3-12.3L154.5,109.7 M154.6,108.7H19.7c-7.3,0-13.3,5.9-13.3,13.3v49.2h148.2
	c0.5,0,0.9-0.4,0.9-0.9v-60.8C155.5,109.1,155.1,108.7,154.6,108.7L154.6,108.7L154.6,108.7z"/>
<ellipse class="st0" cx="27.8" cy="172.1" rx="23.6" ry="24.6"/>
<path d="M27.8,148c12.7,0,23.1,10.8,23.1,24.1s-10.3,24.1-23.1,24.1S4.8,185.4,4.8,172.1S15.1,148,27.8,148 M27.8,147
	c-13.3,0-24.1,11.2-24.1,25.1s10.8,25.1,24.1,25.1s24.1-11.2,24.1-25.1S41.1,147,27.8,147z"/>
<path class="st0" d="M105,48.6h71.6v62.5H105V48.6z"/>
<path class="st0" d="M105.5,65.1h42.4v44.3h-42.4V65.1z"/>
<path d="M147.4,65.6v43.3H106V65.6H147.4 M148.4,64.6H105v45.3h43.4V64.6z"/>
<ellipse class="st0" cx="151.6" cy="148.9" rx="45.9" ry="47.9"/>
<path d="M151.6,101.5c25,0,45.4,21.3,45.4,47.4s-20.4,47.4-45.4,47.4s-45.4-21.3-45.4-47.4S126.6,101.5,151.6,101.5 M151.6,100.5
	c-25.6,0-46.4,21.7-46.4,48.4s20.8,48.4,46.4,48.4s46.4-21.7,46.4-48.4S177.2,100.5,151.6,100.5z"/>
<path class="st0" d="M34.6,73.1H44v38h-9.4V73.1z"/>
<ellipse class="st0" cx="27.8" cy="172.1" rx="11.2" ry="11.8"/>
<path d="M27.8,160.9c6.2,0.3,11,5.6,10.7,11.8c-0.3,5.8-4.9,10.4-10.7,10.7c-6.2-0.3-11-5.6-10.7-11.8
	C17.4,165.8,22,161.1,27.8,160.9 M27.8,159.9c-6.8,0.3-12,6.1-11.6,12.9c0.3,6.3,5.3,11.3,11.6,11.6c6.8-0.3,12-6.1,11.6-12.9
	C39.1,165.2,34.1,160.2,27.8,159.9z"/>
<path class="st0" d="M150.2,179.3c-16.2,0-29.4-13.8-29.4-30.8s13.2-30.8,29.4-30.8s29.4,13.8,29.4,30.8S166.4,179.3,150.2,179.3
	L150.2,179.3z"/>
<g>
	<path d="M150.2,118.2c16,0,28.9,13.6,28.9,30.3s-13,30.3-28.9,30.3s-28.9-13.6-28.9-30.3S134.2,118.2,150.2,118.2 M150.2,117.2
		c-16.5,0-29.9,14-29.9,31.3s13.4,31.3,29.9,31.3s29.9-14,29.9-31.3S166.7,117.2,150.2,117.2z"/>
	<path class="st1" d="M169.5,105.1l-8.8,90"/>
	<path class="st1" d="M169.5,105.1l-60.7,61.6"/>
	<path class="st1" d="M117.1,117l78.8,42.6"/>
	<path class="st1" d="M117.1,117l43.6,78.1"/>
	<path class="st1" d="M195.9,159.5l-87.1,7.2"/>
</g>
<path class="st0" d="M39.2,67.8c-1.6-10.6,2.1-19.1,9.9-21.1c2-0.5,14.2,5.8,17.1,1.5c5.1-7.5,6.2-19.3,21-18.1
	c7.6,0.6,11.4,8.9,4.5,9c-8.2,0.1-15.6,4.7-17.9,12.7c-1.9,6.6-12,11.2-19.4,6.5c-7-4.5-8.3,0.3-9.6,1.4L39.2,67.8z"/>
</svg>
