<svg id="Ebene_1" data-name="Ebene 1" xmlns="http://www.w3.org/2000/svg" viewBox="0 0 200 200"><defs><style>.cls-1,.cls-2{fill:#fff;}.cls-2{stroke:#fff;stroke-miterlimit:10;}</style></defs><title>Zeichenfläche 1</title><path d="M6.89,170.69V122a12.79,12.79,0,0,1,12.78-12.78H154.58a.38.38,0,0,1,.38.38v60.76a.38.38,0,0,1-.38.38Z"/><path class="cls-1" d="M154.46,109.67v60.52H7.39V122a12.3,12.3,0,0,1,12.28-12.28H154.46m.12-1H19.67A13.28,13.28,0,0,0,6.39,122v49.24H154.58a.89.89,0,0,0,.88-.88V109.55a.88.88,0,0,0-.88-.88Z"/><ellipse cx="27.81" cy="172.1" rx="23.56" ry="24.63"/><path class="cls-1" d="M27.81,148c12.72,0,23.06,10.82,23.06,24.12s-10.34,24.13-23.06,24.13S4.75,185.41,4.75,172.1,15.1,148,27.81,148m0-1C14.52,147,3.75,158.23,3.75,172.1s10.77,25.13,24.06,25.13S51.87,186,51.87,172.1,41.1,147,27.81,147Z"/><rect x="104.98" y="48.61" width="71.6" height="62.51"/><rect x="105.48" y="65.05" width="42.43" height="44.35"/><path class="cls-1" d="M147.41,65.55V108.9H106V65.55h41.43m1-1H105V109.9h43.43V64.55Z"/><ellipse cx="151.64" cy="148.91" rx="45.86" ry="47.92"/><path class="cls-1" d="M151.64,101.5c25,0,45.36,21.27,45.36,47.41s-20.35,47.42-45.36,47.42-45.37-21.27-45.37-47.42,20.35-47.41,45.37-47.41m0-1c-25.61,0-46.37,21.67-46.37,48.41s20.76,48.42,46.37,48.42S198,175.65,198,148.91s-20.76-48.41-46.36-48.41Z"/><rect x="34.56" y="73.13" width="9.39" height="38"/><ellipse cx="27.81" cy="172.1" rx="11.24" ry="11.76"/><path class="cls-1" d="M27.81,160.85a11.27,11.27,0,0,1,0,22.51,11.27,11.27,0,0,1,0-22.51m0-1a12.27,12.27,0,0,0,0,24.51,12.27,12.27,0,0,0,0-24.51Z"/><path d="M150.17,179.27c-16.22,0-29.43-13.8-29.43-30.76s13.21-30.76,29.43-30.76,29.43,13.8,29.43,30.76S166.4,179.27,150.17,179.27Z"/><path class="cls-1" d="M150.17,118.25c16,0,28.93,13.58,28.93,30.26s-13,30.26-28.93,30.26-28.93-13.58-28.93-30.26,13-30.26,28.93-30.26m0-1c-16.53,0-29.93,14-29.93,31.26s13.4,31.26,29.93,31.26,29.93-14,29.93-31.26-13.4-31.26-29.93-31.26Z"/><line class="cls-2" x1="169.5" y1="105.09" x2="160.74" y2="195.09"/><line class="cls-2" x1="169.5" y1="105.09" x2="108.83" y2="166.73"/><line class="cls-2" x1="117.12" y1="116.98" x2="195.95" y2="159.54"/><line class="cls-2" x1="117.12" y1="116.98" x2="160.74" y2="195.09"/><line class="cls-2" x1="195.95" y1="159.54" x2="108.83" y2="166.73"/><path d="M39.25,67.8c-1.56-10.57,2.09-19.07,9.93-21.07,2-.5,14.15,5.79,17.07,1.48,5.1-7.52,6.22-19.26,21-18.13,7.62.58,11.39,8.92,4.46,9-8.21.12-15.64,4.69-17.94,12.67-1.9,6.57-12,11.22-19.36,6.49-7-4.48-8.3.29-9.58,1.41Z"/></svg>